# xmcd
#
# Track frame offsets:
#	150
#	29242
#	53767
#	102870
#	125304
#	147867
#	181990
#	199437
#	216445
#	230197
#	275085
#	291590
#	305107
#	322650
#
# Disc length: 4585
#
# Revision: 3
# Processed by: cddbd v1.5.1PL0 Copyright (c) Steve Scherf et al.
# Submitted via: FreeRIP 2.60 
# Normalized: r2:TRMNUM
#
DISCID=e811e70e
DTITLE=바다를 건너는 낙타 - KBS FM 가정음악
DYEAR=2001
DGENRE=Blues
TTITLE0=Offenbach(자클린의 눈물)
TTITLE1=Tchaikovsky(사계 중 뱃노래)
TTITLE2=Mozart(신포니아 콘체르탄테 중 안단테)
TTITLE3=Catalanl(라 왈리 중 나는 멀리 떠나야 하리)
TTITLE4=Dowland(흘러라 나의 눈물)
TTITLE5=Sor(서주와 모짜르트 주제에 의한 변주곡)
TTITLE6=Chopin(첼로소나타 op.65 중 라르고)
TTITLE7=Faure(레퀘엠 중 천국에서)
TTITLE8=Handel(수상 음악 중 혼파이프)
TTITLE9=Ravel(피아노 협주곡 G장조 중 아다지오 아싸이)
TTITLE10=Pergolesi(니나)
TTITLE11=Hoppe(마음 속에 묻어 둔)
TTITLE12=Swedish folksong(Who can sail without the wind)
TTITLE13=Bach(관현악 모음곡 중 에어)
EXTD=YEAR: 2001  ID3G:   0
EXTT0=
EXTT1=
EXTT2=
EXTT3=
EXTT4=
EXTT5=
EXTT6=
EXTT7=
EXTT8=
EXTT9=
EXTT10=
EXTT11=
EXTT12=
EXTT13=
PLAYORDER=
